<svg width="64" height="31" viewBox="0 0 64 31" fill="none" xmlns="http://www.w3.org/2000/svg">
<path d="M8.808 9.8C9.832 9.8 10.184 10.408 10.184 11.336C10.184 14.024 6.856 16.36 4.424 17.608L4.52 17.992C8.072 16.968 12.872 14.536 12.872 11.656C12.872 9.768 11.176 9.032 9.384 9.032C4.232 9.032 0.648 15.144 0.648 19.784C0.648 23.368 2.344 25.512 5.768 25.512C8.808 25.512 12.52 23.336 15.4 20.776V19.976L15.272 19.912C12.712 22.376 9.704 24.072 7.368 24.072C4.84 24.072 3.656 22.12 3.656 19.496C3.656 14.824 6.12 9.8 8.808 9.8ZM13.4008 24.808C14.1688 25.224 14.9368 25.384 15.7688 25.512C17.0488 23.176 20.1208 17.064 22.8408 13.32C24.1208 11.592 25.3688 10.28 26.6808 10.28C27.6408 10.28 28.0888 10.984 28.0888 11.976C28.0888 13.416 26.5528 16.072 23.1288 16.104C22.5528 18.888 22.2008 21.768 22.2008 24.104C22.2008 27.976 23.1288 30.952 25.5608 30.952C26.8088 30.952 27.6408 30.6 28.3128 30.248L28.4088 29.768L28.3128 29.704C27.8968 29.896 27.4808 29.992 26.9688 29.992C25.6248 29.992 25.1128 27.048 25.1128 23.752C25.1128 21.576 25.3688 19.048 25.8808 16.968L25.6888 16.808C25.1448 16.872 24.3448 16.872 23.9608 16.872L23.9288 16.456C28.5368 16.36 31.0968 13.544 31.0968 11.528C31.0968 9.992 29.8808 9.032 28.2168 9.032C25.6568 9.032 23.9928 10.44 22.2328 12.776C20.6008 14.984 19.2568 17.448 17.7528 20.072L17.4968 19.88C18.2008 17.576 18.8088 15.368 19.3528 13.224C20.7928 11.176 22.3288 9.832 23.6088 8.872C26.2328 6.856 28.4088 5.736 28.4088 3.368C28.4088 1.96 27.1287 0.967999 24.9528 0.967999C21.6568 0.967999 18.8088 3.848 17.5928 8.712C16.6968 12.136 15.1288 20.616 13.4008 24.808ZM20.5368 7.944C21.3368 4.2 22.6808 1.576 24.3128 1.576C25.2088 1.576 25.6888 2.184 25.6888 3.528C25.6888 5.608 24.6968 6.824 23.2248 8.136C22.2008 9.096 20.9208 10.152 19.7048 11.752C19.9928 10.472 20.2808 9.224 20.5368 7.944ZM49.7913 21.736V20.904L49.6953 20.808C48.0633 22.344 45.4713 24.392 43.3593 24.648C43.2313 24.456 43.1673 24.2 43.1673 23.848C43.1673 22.568 44.0312 19.88 44.8313 17.256C45.6632 14.632 46.4953 12.008 46.4953 10.888C45.8873 10.248 44.8953 9.704 43.9353 9.448C42.7193 12.712 40.9273 17.352 39.2953 20.264C37.9193 22.76 37.1193 23.592 36.2873 23.592C35.1353 23.592 34.6553 21.96 34.6553 19.592C34.6553 14.344 36.8633 9.928 39.0073 9.928C40.4153 9.928 41.5033 11.016 42.2713 11.976L42.5593 11.144C41.7273 10.024 40.3193 9.032 38.5913 9.032C34.4633 9.032 31.6473 14.568 31.6473 19.784C31.6473 23.112 32.7033 25.512 35.0073 25.512C37.5033 25.512 39.9353 21.16 41.6953 17.256L42.4633 17.16C41.4713 19.56 40.4153 21.672 40.4153 23.24C40.4153 24.68 41.2793 25.512 42.6233 25.512C44.9593 25.512 47.9673 23.432 49.7913 21.736ZM59.6158 10.984C60.8318 10.984 61.1518 13.16 61.3438 16.04L61.6958 16.136C62.5598 14.536 63.1678 12.968 63.5518 11.592C63.5198 10.088 62.6558 9.032 61.2158 9.032C58.6558 9.032 57.0238 11.752 55.9358 13.48C54.6878 15.496 53.2798 18.024 52.2238 20.04L51.8398 19.784C53.3118 16.328 54.7517 11.912 54.8158 9.256L54.4638 9.032C53.4078 9.032 51.4558 9.224 50.4638 9.48L50.4318 9.736L51.5838 10.76C51.3278 14.952 48.5438 22.76 47.5838 24.808C48.0958 25.128 49.3438 25.448 50.1438 25.512C52.4158 20.872 54.4318 17.16 56.0638 14.632C57.5998 12.232 58.7838 10.984 59.6158 10.984Z" fill="#7A7A7A" fill-opacity="0.5"/>
</svg>
