<svg width="11" height="12" viewBox="0 0 11 12" fill="none" xmlns="http://www.w3.org/2000/svg">
<path d="M5.724 8.82C5.088 10.788 4.104 12 2.712 12C1.692 12 0.576 11.304 0.492 10.356C0.744 9.852 1.416 9.12 2.028 8.772C1.572 8.628 1.32 8.244 1.32 7.764C1.32 7.176 1.668 6.336 1.98 5.508C2.244 4.824 2.484 4.14 2.484 3.672C2.484 3.444 2.388 3.372 2.244 3.372C2.088 3.372 1.944 3.408 1.812 3.468L1.776 3.444L1.836 3.216C2.1 3.096 2.424 3.012 2.736 3.012C3.264 3.012 3.588 3.324 3.588 3.864C3.588 4.32 3.36 4.932 3.12 5.568C2.82 6.336 2.496 7.128 2.496 7.764C2.496 8.1 2.652 8.28 2.904 8.28C3.348 8.28 3.9 7.764 4.512 6.792C5.052 5.904 5.652 4.632 6.24 3.036C6.564 3.132 6.972 3.312 7.2 3.576C6.876 4.8 6.204 7.344 5.724 8.82ZM1.572 10.236C1.572 10.98 2.16 11.748 3.096 11.748C3.684 11.748 4.164 10.536 4.608 9.168C4.944 8.064 5.244 6.84 5.472 6.048L5.28 6.072C5.136 6.348 4.968 6.612 4.8 6.864C4.104 7.956 3.24 8.82 2.424 8.82H2.28C1.86 9.216 1.572 9.744 1.572 10.236ZM9.39928 1.512C9.05128 1.512 8.78728 1.272 8.78728 0.948C8.78728 0.443999 9.24328 0.144 9.62728 0.144C9.97528 0.144 10.2153 0.383999 10.2153 0.707999C10.2153 1.212 9.78328 1.512 9.39928 1.512ZM10.9833 7.8C10.3113 8.436 9.25528 9.192 8.37928 9.192C7.86328 9.192 7.49128 8.88 7.49128 8.316C7.49128 7.776 7.74328 6.96 8.01928 6.108C8.28328 5.256 8.58328 4.356 8.65528 3.648L8.22328 3.276L8.24728 3.18C8.69128 3.084 9.31528 3.012 9.73528 3.012L9.86728 3.096C9.86728 3.708 9.57928 4.752 9.26728 5.784C8.94328 6.84 8.58328 7.92 8.58328 8.544C8.58328 8.688 8.60728 8.796 8.64328 8.868C9.35128 8.808 10.3353 8.052 10.9353 7.464L10.9833 7.488V7.8Z" fill="black"/>
</svg>
